<mxfile host="65bd71144e">
    <diagram id="wpgMHarCI7yDUVTcZana" name="第 1 页">
        <mxGraphModel dx="927" dy="1714" grid="1" gridSize="10" guides="1" tooltips="1" connect="1" arrows="1" fold="1" page="1" pageScale="1" pageWidth="827" pageHeight="1169" math="0" shadow="0">
            <root>
                <mxCell id="0"/>
                <mxCell id="1" parent="0"/>
                <mxCell id="2" value="Map" style="swimlane;fontStyle=1;align=center;verticalAlign=top;childLayout=stackLayout;horizontal=1;startSize=26;horizontalStack=0;resizeParent=1;resizeParentMax=0;resizeLast=0;collapsible=1;marginBottom=0;" vertex="1" parent="1">
                    <mxGeometry y="15" width="160" height="108" as="geometry">
                        <mxRectangle x="40" y="40" width="60" height="26" as="alternateBounds"/>
                    </mxGeometry>
                </mxCell>
                <mxCell id="3" value="+ basemap: BaseMap&#10;+ ground: Ground&#10;+ tables: Collection&lt;Layer&gt;&#10;+ layers: Collection&lt;Layer&gt;" style="text;strokeColor=none;fillColor=none;align=left;verticalAlign=top;spacingLeft=4;spacingRight=4;overflow=hidden;rotatable=0;points=[[0,0.5],[1,0.5]];portConstraint=eastwest;" vertex="1" parent="2">
                    <mxGeometry y="26" width="160" height="74" as="geometry"/>
                </mxCell>
                <mxCell id="4" value="" style="line;strokeWidth=1;fillColor=none;align=left;verticalAlign=middle;spacingTop=-1;spacingLeft=3;spacingRight=3;rotatable=0;labelPosition=right;points=[];portConstraint=eastwest;" vertex="1" parent="2">
                    <mxGeometry y="100" width="160" height="8" as="geometry"/>
                </mxCell>
                <mxCell id="24" value="Layer" style="swimlane;fontStyle=2;childLayout=stackLayout;horizontal=1;startSize=26;fillColor=none;horizontalStack=0;resizeParent=1;resizeParentMax=0;resizeLast=0;collapsible=1;marginBottom=0;" vertex="1" collapsed="1" parent="1">
                    <mxGeometry x="260" y="56" width="60" height="26" as="geometry">
                        <mxRectangle x="274" y="40" width="140" height="30" as="alternateBounds"/>
                    </mxGeometry>
                </mxCell>
                <mxCell id="30" value="FeatureLayer" style="swimlane;fontStyle=0;childLayout=stackLayout;horizontal=1;startSize=26;fillColor=none;horizontalStack=0;resizeParent=1;resizeParentMax=0;resizeLast=0;collapsible=1;marginBottom=0;" vertex="1" collapsed="1" parent="1">
                    <mxGeometry x="430" y="112" width="100" height="26" as="geometry">
                        <mxRectangle x="274" y="110" width="140" height="46" as="alternateBounds"/>
                    </mxGeometry>
                </mxCell>
                <mxCell id="54" value="要素服务" style="text;html=1;align=center;verticalAlign=middle;resizable=0;points=[];autosize=1;strokeColor=none;fillColor=none;" vertex="1" parent="30">
                    <mxGeometry y="26" width="100" height="20" as="geometry"/>
                </mxCell>
                <mxCell id="32" value="GraphicLayer" style="swimlane;fontStyle=0;childLayout=stackLayout;horizontal=1;startSize=26;fillColor=none;horizontalStack=0;resizeParent=1;resizeParentMax=0;resizeLast=0;collapsible=1;marginBottom=0;" vertex="1" collapsed="1" parent="1">
                    <mxGeometry x="430" width="100" height="26" as="geometry">
                        <mxRectangle x="414" y="110" width="140" height="46" as="alternateBounds"/>
                    </mxGeometry>
                </mxCell>
                <mxCell id="55" value="客户端图层" style="text;html=1;align=center;verticalAlign=middle;resizable=0;points=[];autosize=1;strokeColor=none;fillColor=none;" vertex="1" parent="32">
                    <mxGeometry y="26" width="100" height="20" as="geometry"/>
                </mxCell>
                <mxCell id="34" value="1" style="endArrow=open;html=1;endSize=12;startArrow=diamondThin;startSize=14;startFill=1;edgeStyle=orthogonalEdgeStyle;align=left;verticalAlign=bottom;noEdgeStyle=1;orthogonal=1;" edge="1" parent="1" source="2" target="24">
                    <mxGeometry x="-1" y="3" relative="1" as="geometry">
                        <mxPoint x="200" y="120" as="sourcePoint"/>
                        <mxPoint x="360" y="120" as="targetPoint"/>
                        <Array as="points">
                            <mxPoint x="172" y="69"/>
                            <mxPoint x="248" y="69"/>
                        </Array>
                    </mxGeometry>
                </mxCell>
                <mxCell id="35" value="MapImageLayer" style="swimlane;fontStyle=0;childLayout=stackLayout;horizontal=1;startSize=26;fillColor=none;horizontalStack=0;resizeParent=1;resizeParentMax=0;resizeLast=0;collapsible=1;marginBottom=0;" vertex="1" collapsed="1" parent="1">
                    <mxGeometry x="420" y="56" width="120" height="26" as="geometry">
                        <mxRectangle x="554" y="110" width="140" height="46" as="alternateBounds"/>
                    </mxGeometry>
                </mxCell>
                <mxCell id="56" value="地图服务" style="text;html=1;align=center;verticalAlign=middle;resizable=0;points=[];autosize=1;strokeColor=none;fillColor=none;" vertex="1" parent="35">
                    <mxGeometry y="26" width="120" height="20" as="geometry"/>
                </mxCell>
                <mxCell id="37" value="name" style="endArrow=block;endFill=1;html=1;edgeStyle=orthogonalEdgeStyle;align=left;verticalAlign=top;" edge="1" parent="1">
                    <mxGeometry x="-1" relative="1" as="geometry">
                        <mxPoint x="40" y="-80" as="sourcePoint"/>
                        <mxPoint x="200" y="-80" as="targetPoint"/>
                    </mxGeometry>
                </mxCell>
                <mxCell id="38" value="1" style="edgeLabel;resizable=0;html=1;align=left;verticalAlign=bottom;" connectable="0" vertex="1" parent="37">
                    <mxGeometry x="-1" relative="1" as="geometry"/>
                </mxCell>
                <mxCell id="42" value="1" style="endArrow=open;html=1;endSize=12;startArrow=diamondThin;startSize=14;startFill=0;edgeStyle=orthogonalEdgeStyle;align=left;verticalAlign=bottom;" edge="1" parent="1">
                    <mxGeometry x="-1" y="3" relative="1" as="geometry">
                        <mxPoint x="40" y="-40" as="sourcePoint"/>
                        <mxPoint x="200" y="-40" as="targetPoint"/>
                    </mxGeometry>
                </mxCell>
                <mxCell id="43" value="1" style="endArrow=open;html=1;endSize=12;startArrow=diamondThin;startSize=14;startFill=1;edgeStyle=orthogonalEdgeStyle;align=left;verticalAlign=bottom;" edge="1" parent="1">
                    <mxGeometry x="-1" y="3" relative="1" as="geometry">
                        <mxPoint x="40" as="sourcePoint"/>
                        <mxPoint x="200" as="targetPoint"/>
                    </mxGeometry>
                </mxCell>
                <mxCell id="44" value="Extends" style="endArrow=block;endSize=16;endFill=0;html=1;" edge="1" parent="1">
                    <mxGeometry width="160" relative="1" as="geometry">
                        <mxPoint x="40" y="-210" as="sourcePoint"/>
                        <mxPoint x="200" y="-210" as="targetPoint"/>
                    </mxGeometry>
                </mxCell>
                <mxCell id="45" value="" style="endArrow=block;dashed=1;endFill=0;endSize=12;html=1;" edge="1" parent="1">
                    <mxGeometry width="160" relative="1" as="geometry">
                        <mxPoint x="40" y="-170" as="sourcePoint"/>
                        <mxPoint x="200" y="-170" as="targetPoint"/>
                    </mxGeometry>
                </mxCell>
                <mxCell id="46" value="Use" style="endArrow=open;endSize=12;dashed=1;html=1;" edge="1" parent="1">
                    <mxGeometry width="160" relative="1" as="geometry">
                        <mxPoint x="40" y="-120" as="sourcePoint"/>
                        <mxPoint x="200" y="-120" as="targetPoint"/>
                    </mxGeometry>
                </mxCell>
                <mxCell id="48" value="继承" style="text;html=1;align=center;verticalAlign=middle;resizable=0;points=[];autosize=1;strokeColor=none;fillColor=none;" vertex="1" parent="1">
                    <mxGeometry y="643" width="40" height="20" as="geometry"/>
                </mxCell>
                <mxCell id="49" value="实现" style="text;html=1;align=center;verticalAlign=middle;resizable=0;points=[];autosize=1;strokeColor=none;fillColor=none;" vertex="1" parent="1">
                    <mxGeometry y="723" width="40" height="20" as="geometry"/>
                </mxCell>
                <mxCell id="50" value="依赖" style="text;html=1;align=center;verticalAlign=middle;resizable=0;points=[];autosize=1;strokeColor=none;fillColor=none;" vertex="1" parent="1">
                    <mxGeometry y="803" width="40" height="20" as="geometry"/>
                </mxCell>
                <mxCell id="51" value="关联：成员变量" style="text;html=1;align=center;verticalAlign=middle;resizable=0;points=[];autosize=1;strokeColor=none;fillColor=none;" vertex="1" parent="1">
                    <mxGeometry y="883" width="100" height="20" as="geometry"/>
                </mxCell>
                <mxCell id="52" value="聚合：整体-个体" style="text;html=1;align=center;verticalAlign=middle;resizable=0;points=[];autosize=1;strokeColor=none;fillColor=none;" vertex="1" parent="1">
                    <mxGeometry y="963" width="100" height="20" as="geometry"/>
                </mxCell>
                <mxCell id="53" value="组合：整体-部分，共生共死" style="text;html=1;align=center;verticalAlign=middle;resizable=0;points=[];autosize=1;strokeColor=none;fillColor=none;" vertex="1" parent="1">
                    <mxGeometry y="1043" width="160" height="20" as="geometry"/>
                </mxCell>
                <mxCell id="58" value="Extends" style="endArrow=block;endSize=16;endFill=0;html=1;noEdgeStyle=1;orthogonal=1;" edge="1" parent="1" source="24" target="30">
                    <mxGeometry width="160" relative="1" as="geometry">
                        <mxPoint x="340" y="70" as="sourcePoint"/>
                        <mxPoint x="340" y="110" as="targetPoint"/>
                        <Array as="points">
                            <mxPoint x="332" y="77.66666666666667"/>
                            <mxPoint x="408" y="125"/>
                        </Array>
                    </mxGeometry>
                </mxCell>
                <mxCell id="59" value="Extends" style="endArrow=block;endSize=16;endFill=0;html=1;noEdgeStyle=1;orthogonal=1;" edge="1" parent="1" source="24" target="32">
                    <mxGeometry width="160" relative="1" as="geometry">
                        <mxPoint x="420" y="50" as="sourcePoint"/>
                        <mxPoint x="540" y="150" as="targetPoint"/>
                        <Array as="points">
                            <mxPoint x="332" y="60.333333333333336"/>
                            <mxPoint x="408" y="13"/>
                        </Array>
                    </mxGeometry>
                </mxCell>
                <mxCell id="60" value="Extends" style="endArrow=block;endSize=16;endFill=0;html=1;noEdgeStyle=1;orthogonal=1;" edge="1" parent="1" source="24" target="35">
                    <mxGeometry width="160" relative="1" as="geometry">
                        <mxPoint x="440" y="50" as="sourcePoint"/>
                        <mxPoint x="600" y="50" as="targetPoint"/>
                        <Array as="points">
                            <mxPoint x="334" y="69"/>
                            <mxPoint x="408" y="69"/>
                        </Array>
                    </mxGeometry>
                </mxCell>
            </root>
        </mxGraphModel>
    </diagram>
</mxfile>